<svg width="38" height="32" viewBox="0 0 38 32" fill="none" xmlns="http://www.w3.org/2000/svg">
    <g clip-path="url(#clip0_2130_43607)">
    <path d="M24.5861 22.8568H8.73425L7.40806 20.5731L6.08471 18.2866H0.799805L2.12032 20.5731L3.44367 22.8568L4.76702 25.1434L6.08754 27.4299L7.40806 29.7136L8.73425 32.0001H14.0135L12.7015 29.7136L11.3809 27.4299H27.2498L25.9066 25.1434L24.5861 22.8568Z" fill="#1D3B30"/>
    <path d="M36.4794 16.0001L35.1589 13.7136L33.8355 16.0001L32.515 18.2866L31.1945 16.0001L29.8712 13.7136L28.5506 11.4299L27.2301 9.14336L25.9068 6.85684L24.5863 4.57031L23.2657 6.85684L21.9424 9.14336L23.2657 11.4299L24.5863 13.7136L25.9068 16.0001L27.2301 18.2866L28.5506 20.5731L29.8712 22.8568L28.5506 25.1434L27.2301 27.4299L28.5506 29.7136L29.8712 32.0001L31.1945 29.7136L32.515 27.4299L33.8355 25.1434L35.1589 22.8568L36.4794 20.5731L37.7999 18.2866L36.4794 16.0001Z" fill="#1D3B30"/>
    <path d="M11.3724 18.2865L12.7014 16L14.0219 13.7135L15.3453 11.4298L16.6686 9.14326L17.9892 6.85674L19.3125 4.57022H24.5861L25.9066 2.28652L27.2299 0H11.3611L10.0491 2.28652L8.7342 4.57022H14.0134L12.7014 6.85674L11.3809 9.14326L10.0576 11.4298L8.7342 13.7135L7.41368 16L6.09033 18.2865H11.3724Z" fill="#1D3B30"/>
    </g>
    <defs>
    <clipPath id="clip0_2130_43607">
    <rect width="37" height="32" fill="white" transform="translate(0.799805)"/>
    </clipPath>
    </defs>
    </svg>
    